<svg xmlns="http://www.w3.org/2000/svg" viewBox="0 0 48 48" fill="none">
  <rect width="48" height="48" rx="10" fill="#FBF3E6"/>
  <g stroke="#3A2E28" stroke-width="2.6" stroke-linecap="round" stroke-linejoin="round">
    <path d="M15 4 L15 19"/>
    <path d="M24 4 L24 19"/>
    <path d="M33 4 L33 19"/>
    <path d="M13 19 C13 25 22 26 24 30 L24 43"/>
    <path d="M35 19 C35 25 26 26 24 30"/>
  </g>
  <g stroke="#E3A73B" stroke-width="3.2" stroke-linecap="round" fill="none">
    <path d="M7 14 C13 11 19 17 25 14 C31 11 37 16 41 13"/>
    <path d="M7 20 C13 17 19 23 25 20 C31 17 37 22 41 19"/>
  </g>
</svg>
